<mxfile host="app.diagrams.net" modified="2021-11-23T02:36:14.535Z" agent="5.0 (Windows NT 10.0; Win64; x64) AppleWebKit/537.36 (KHTML, like Gecko) Chrome/95.0.4638.69 Safari/537.36" etag="TgUzBTBLzjHlWyiYYOQY" version="15.8.3" type="github">
  <diagram id="C5RBs43oDa-KdzZeNtuy" name="Page-1">
    <mxGraphModel dx="2048" dy="706" grid="1" gridSize="10" guides="1" tooltips="1" connect="1" arrows="1" fold="1" page="1" pageScale="1" pageWidth="827" pageHeight="1169" math="0" shadow="0">
      <root>
        <mxCell id="WIyWlLk6GJQsqaUBKTNV-0" />
        <mxCell id="WIyWlLk6GJQsqaUBKTNV-1" parent="WIyWlLk6GJQsqaUBKTNV-0" />
        <mxCell id="89V0pPBTU7u06rMjEI4J-0" value="Gameboard" style="swimlane;fontStyle=1;align=center;verticalAlign=top;childLayout=stackLayout;horizontal=1;startSize=26;horizontalStack=0;resizeParent=1;resizeParentMax=0;resizeLast=0;collapsible=1;marginBottom=0;" parent="WIyWlLk6GJQsqaUBKTNV-1" vertex="1">
          <mxGeometry x="-80" y="1315" width="260" height="120" as="geometry" />
        </mxCell>
        <mxCell id="89V0pPBTU7u06rMjEI4J-1" value="- squares: ArrayList&lt;Square&gt;" style="text;strokeColor=none;fillColor=none;align=left;verticalAlign=top;spacingLeft=4;spacingRight=4;overflow=hidden;rotatable=0;points=[[0,0.5],[1,0.5]];portConstraint=eastwest;" parent="89V0pPBTU7u06rMjEI4J-0" vertex="1">
          <mxGeometry y="26" width="260" height="24" as="geometry" />
        </mxCell>
        <mxCell id="89V0pPBTU7u06rMjEI4J-2" value="" style="line;strokeWidth=1;fillColor=none;align=left;verticalAlign=middle;spacingTop=-1;spacingLeft=3;spacingRight=3;rotatable=0;labelPosition=right;points=[];portConstraint=eastwest;" parent="89V0pPBTU7u06rMjEI4J-0" vertex="1">
          <mxGeometry y="50" width="260" height="8" as="geometry" />
        </mxCell>
        <mxCell id="89V0pPBTU7u06rMjEI4J-3" value="+ Gameboard(squares: ArrayList&lt;Square&gt;)&#xa;+ getSquares(): ArrayList&lt;Square&gt;&#xa;+ getSquare(position: int): Square&#xa;" style="text;strokeColor=none;fillColor=none;align=left;verticalAlign=top;spacingLeft=4;spacingRight=4;overflow=hidden;rotatable=0;points=[[0,0.5],[1,0.5]];portConstraint=eastwest;" parent="89V0pPBTU7u06rMjEI4J-0" vertex="1">
          <mxGeometry y="58" width="260" height="62" as="geometry" />
        </mxCell>
        <mxCell id="8WZaVkMKhoH__vkDGNuC-46" style="edgeStyle=orthogonalEdgeStyle;rounded=0;orthogonalLoop=1;jettySize=auto;html=1;endArrow=open;endFill=0;endSize=10;" parent="WIyWlLk6GJQsqaUBKTNV-1" source="89V0pPBTU7u06rMjEI4J-4" target="y0c8cUuytXagtE5NIueB-23" edge="1">
          <mxGeometry relative="1" as="geometry">
            <Array as="points">
              <mxPoint x="290" y="1010" />
              <mxPoint x="290" y="1010" />
            </Array>
          </mxGeometry>
        </mxCell>
        <mxCell id="89V0pPBTU7u06rMjEI4J-4" value="Die" style="swimlane;fontStyle=1;align=center;verticalAlign=top;childLayout=stackLayout;horizontal=1;startSize=26;horizontalStack=0;resizeParent=1;resizeParentMax=0;resizeLast=0;collapsible=1;marginBottom=0;" parent="WIyWlLk6GJQsqaUBKTNV-1" vertex="1">
          <mxGeometry x="340" y="945" width="210" height="130" as="geometry" />
        </mxCell>
        <mxCell id="89V0pPBTU7u06rMjEI4J-5" value="- NUM_SIDES: int" style="text;strokeColor=none;fillColor=none;align=left;verticalAlign=top;spacingLeft=4;spacingRight=4;overflow=hidden;rotatable=0;points=[[0,0.5],[1,0.5]];portConstraint=eastwest;" parent="89V0pPBTU7u06rMjEI4J-4" vertex="1">
          <mxGeometry y="26" width="210" height="26" as="geometry" />
        </mxCell>
        <mxCell id="89V0pPBTU7u06rMjEI4J-6" value="" style="line;strokeWidth=1;fillColor=none;align=left;verticalAlign=middle;spacingTop=-1;spacingLeft=3;spacingRight=3;rotatable=0;labelPosition=right;points=[];portConstraint=eastwest;" parent="89V0pPBTU7u06rMjEI4J-4" vertex="1">
          <mxGeometry y="52" width="210" height="8" as="geometry" />
        </mxCell>
        <mxCell id="89V0pPBTU7u06rMjEI4J-7" value="+ Die()&#xa;+ Die(numberOfSides: int)&#xa;+ roll(): int" style="text;strokeColor=none;fillColor=none;align=left;verticalAlign=top;spacingLeft=4;spacingRight=4;overflow=hidden;rotatable=0;points=[[0,0.5],[1,0.5]];portConstraint=eastwest;" parent="89V0pPBTU7u06rMjEI4J-4" vertex="1">
          <mxGeometry y="60" width="210" height="70" as="geometry" />
        </mxCell>
        <mxCell id="8WZaVkMKhoH__vkDGNuC-30" style="edgeStyle=orthogonalEdgeStyle;rounded=0;orthogonalLoop=1;jettySize=auto;html=1;endArrow=diamondThin;endFill=0;endSize=16;exitX=0.006;exitY=0.054;exitDx=0;exitDy=0;exitPerimeter=0;" parent="WIyWlLk6GJQsqaUBKTNV-1" source="89V0pPBTU7u06rMjEI4J-11" target="y0c8cUuytXagtE5NIueB-23" edge="1">
          <mxGeometry relative="1" as="geometry">
            <Array as="points">
              <mxPoint x="300" y="1175" />
              <mxPoint x="300" y="1175" />
            </Array>
            <mxPoint x="550" y="1175" as="sourcePoint" />
          </mxGeometry>
        </mxCell>
        <mxCell id="kfgi2sBqW_4C3qd6xdu4-14" style="edgeStyle=orthogonalEdgeStyle;rounded=0;orthogonalLoop=1;jettySize=auto;html=1;endArrow=block;endFill=0;endSize=10;exitX=0.5;exitY=0;exitDx=0;exitDy=0;entryX=0.408;entryY=1.007;entryDx=0;entryDy=0;entryPerimeter=0;" parent="WIyWlLk6GJQsqaUBKTNV-1" source="kfgi2sBqW_4C3qd6xdu4-10" target="89V0pPBTU7u06rMjEI4J-11" edge="1">
          <mxGeometry relative="1" as="geometry">
            <Array as="points">
              <mxPoint x="540" y="1510" />
              <mxPoint x="698" y="1510" />
            </Array>
            <mxPoint x="646" y="1470" as="sourcePoint" />
            <mxPoint x="699" y="1470" as="targetPoint" />
          </mxGeometry>
        </mxCell>
        <mxCell id="89V0pPBTU7u06rMjEI4J-8" value="Player" style="swimlane;fontStyle=1;align=center;verticalAlign=top;childLayout=stackLayout;horizontal=1;startSize=26;horizontalStack=0;resizeParent=1;resizeParentMax=0;resizeLast=0;collapsible=1;marginBottom=0;" parent="WIyWlLk6GJQsqaUBKTNV-1" vertex="1">
          <mxGeometry x="580" y="1040" width="290" height="430" as="geometry" />
        </mxCell>
        <mxCell id="89V0pPBTU7u06rMjEI4J-9" value="- money: int&#xa;- NAME: String&#xa;- PROPERTIES: ArrayList&lt;Property&gt;&#xa;- POSITION: List&lt;Integer&gt;&#xa;- bankrupt: boolean&#xa;&#xa;&#xa;" style="text;strokeColor=none;fillColor=none;align=left;verticalAlign=top;spacingLeft=4;spacingRight=4;overflow=hidden;rotatable=0;points=[[0,0.5],[1,0.5]];portConstraint=eastwest;" parent="89V0pPBTU7u06rMjEI4J-8" vertex="1">
          <mxGeometry y="26" width="290" height="84" as="geometry" />
        </mxCell>
        <mxCell id="89V0pPBTU7u06rMjEI4J-10" value="" style="line;strokeWidth=1;fillColor=none;align=left;verticalAlign=middle;spacingTop=-1;spacingLeft=3;spacingRight=3;rotatable=0;labelPosition=right;points=[];portConstraint=eastwest;" parent="89V0pPBTU7u06rMjEI4J-8" vertex="1">
          <mxGeometry y="110" width="290" height="8" as="geometry" />
        </mxCell>
        <mxCell id="89V0pPBTU7u06rMjEI4J-11" value="+ Player(name: String, money: int)&#xa;+ removeMoney(money: int): void&#xa;+ isBankrupt(): boolean&#xa;+ setBankruptcy(bankruptcyState: boolean): void&#xa;+ addMoney(money: int): void&#xa;+ getProperties(): List&lt;Property&gt;&#xa;+ getMoney(): int&#xa;+ getName(): String&#xa;+ addProperty(property: Property): int&#xa;+ getPosition(): List&lt;Integer&gt;Â &#xa;+ setPosition(position: int): void&#xa;+ getDoubleCount(): int&#xa;+ setDoubleCount(dc: int): void&#xa;+ getInJail(): boolean&#xa;+ setInJail(): void&#xa;+ getTotalRoll(): int&#xa;+ setTotalRoll(totalRoll: int): void&#xa;+ getTotalNumberHouses(): int&#xa;+ setTotalNumberHouses(totalHouses: int): void&#xa;+ getTotalNumberHotels(): int&#xa;+ setTotalNumberHotels(totalHotels: int): void" style="text;strokeColor=none;fillColor=none;align=left;verticalAlign=top;spacingLeft=4;spacingRight=4;overflow=hidden;rotatable=0;points=[[0,0.5],[1,0.5]];portConstraint=eastwest;" parent="89V0pPBTU7u06rMjEI4J-8" vertex="1">
          <mxGeometry y="118" width="290" height="312" as="geometry" />
        </mxCell>
        <mxCell id="89V0pPBTU7u06rMjEI4J-24" value="Street" style="swimlane;fontStyle=1;align=center;verticalAlign=top;childLayout=stackLayout;horizontal=1;startSize=26;horizontalStack=0;resizeParent=1;resizeParentMax=0;resizeLast=0;collapsible=1;marginBottom=0;" parent="WIyWlLk6GJQsqaUBKTNV-1" vertex="1">
          <mxGeometry x="-730" y="1850" width="420" height="320" as="geometry" />
        </mxCell>
        <mxCell id="89V0pPBTU7u06rMjEI4J-25" value="- colour: String&#xa;- houseCost: int&#xa;- hotelCost: int&#xa;- houses: int&#xa;- hotel: int&#xa;- maxCapacityReached: boolean&#xa;" style="text;strokeColor=none;fillColor=none;align=left;verticalAlign=top;spacingLeft=4;spacingRight=4;overflow=hidden;rotatable=0;points=[[0,0.5],[1,0.5]];portConstraint=eastwest;" parent="89V0pPBTU7u06rMjEI4J-24" vertex="1">
          <mxGeometry y="26" width="420" height="94" as="geometry" />
        </mxCell>
        <mxCell id="89V0pPBTU7u06rMjEI4J-26" value="" style="line;strokeWidth=1;fillColor=none;align=left;verticalAlign=middle;spacingTop=-1;spacingLeft=3;spacingRight=3;rotatable=0;labelPosition=right;points=[];portConstraint=eastwest;" parent="89V0pPBTU7u06rMjEI4J-24" vertex="1">
          <mxGeometry y="120" width="420" height="8" as="geometry" />
        </mxCell>
        <mxCell id="89V0pPBTU7u06rMjEI4J-27" value="+ Street(name: String, colour: String, cost: int)&#xa;+ getColour(): String&#xa;+ getHouses(): int&#xa;+ getHotel(): int&#xa;+ getHouseCost() int&#xa;+ getHotelCost(): int&#xa;+ setHouses(numHouses: int): void&#xa;+ setHotels(numHotels: int): void&#xa;+ getMaxCapacityReached(): boolean&#xa;+ setMaxCapacityReached(maxCapacityReached: boolean): void&#xa;+ calculateRent(player: Player, gameboard: Gameboard): int&#xa;+ toString(): String" style="text;strokeColor=none;fillColor=none;align=left;verticalAlign=top;spacingLeft=4;spacingRight=4;overflow=hidden;rotatable=0;points=[[0,0.5],[1,0.5]];portConstraint=eastwest;" parent="89V0pPBTU7u06rMjEI4J-24" vertex="1">
          <mxGeometry y="128" width="420" height="192" as="geometry" />
        </mxCell>
        <mxCell id="8WZaVkMKhoH__vkDGNuC-33" style="edgeStyle=orthogonalEdgeStyle;rounded=0;orthogonalLoop=1;jettySize=auto;html=1;endArrow=block;endFill=0;endSize=10;dashed=1;entryX=0.531;entryY=1.053;entryDx=0;entryDy=0;entryPerimeter=0;exitX=0.5;exitY=0;exitDx=0;exitDy=0;" parent="WIyWlLk6GJQsqaUBKTNV-1" source="89V0pPBTU7u06rMjEI4J-49" target="paI8Il_EuwSy5qUbTORu-12" edge="1">
          <mxGeometry relative="1" as="geometry">
            <mxPoint x="57" y="1690" as="sourcePoint" />
            <mxPoint x="60" y="1630" as="targetPoint" />
            <Array as="points">
              <mxPoint x="56" y="1654" />
            </Array>
          </mxGeometry>
        </mxCell>
        <mxCell id="89V0pPBTU7u06rMjEI4J-49" value="Property" style="swimlane;fontStyle=3;align=center;verticalAlign=top;childLayout=stackLayout;horizontal=1;startSize=26;horizontalStack=0;resizeParent=1;resizeParentMax=0;resizeLast=0;collapsible=1;marginBottom=0;" parent="WIyWlLk6GJQsqaUBKTNV-1" vertex="1">
          <mxGeometry x="-105" y="1654" width="320" height="200" as="geometry" />
        </mxCell>
        <mxCell id="89V0pPBTU7u06rMjEI4J-50" value="- PROPERTY_NAME: String&#xa;- COST: int&#xa;- owner: Player" style="text;strokeColor=none;fillColor=none;align=left;verticalAlign=top;spacingLeft=4;spacingRight=4;overflow=hidden;rotatable=0;points=[[0,0.5],[1,0.5]];portConstraint=eastwest;" parent="89V0pPBTU7u06rMjEI4J-49" vertex="1">
          <mxGeometry y="26" width="320" height="64" as="geometry" />
        </mxCell>
        <mxCell id="89V0pPBTU7u06rMjEI4J-51" value="" style="line;strokeWidth=1;fillColor=none;align=left;verticalAlign=middle;spacingTop=-1;spacingLeft=3;spacingRight=3;rotatable=0;labelPosition=right;points=[];portConstraint=eastwest;" parent="89V0pPBTU7u06rMjEI4J-49" vertex="1">
          <mxGeometry y="90" width="320" height="8" as="geometry" />
        </mxCell>
        <mxCell id="89V0pPBTU7u06rMjEI4J-52" value="+ Property(pName: String, c: int)&lt;br&gt;+ getName(): String&lt;br&gt;+ setOwner(player: Player)&lt;br&gt;+ getOwner(): Player&lt;br&gt;+ getCost(): int&lt;br&gt;+ &lt;i&gt;calculateRent(player: Player, gameboard: Gameboard)&lt;/i&gt;" style="text;strokeColor=none;fillColor=none;align=left;verticalAlign=top;spacingLeft=4;spacingRight=4;overflow=hidden;rotatable=0;points=[[0,0.5],[1,0.5]];portConstraint=eastwest;fontStyle=0;html=1;" parent="89V0pPBTU7u06rMjEI4J-49" vertex="1">
          <mxGeometry y="98" width="320" height="102" as="geometry" />
        </mxCell>
        <mxCell id="8WZaVkMKhoH__vkDGNuC-32" style="edgeStyle=orthogonalEdgeStyle;rounded=0;orthogonalLoop=1;jettySize=auto;html=1;endArrow=diamondThin;endFill=0;endSize=16;" parent="WIyWlLk6GJQsqaUBKTNV-1" source="paI8Il_EuwSy5qUbTORu-11" target="89V0pPBTU7u06rMjEI4J-0" edge="1">
          <mxGeometry relative="1" as="geometry" />
        </mxCell>
        <mxCell id="paI8Il_EuwSy5qUbTORu-11" value="Square&#xa;&lt;&lt;interface&gt;&gt;" style="swimlane;fontStyle=1;childLayout=stackLayout;horizontal=1;startSize=36;fillColor=none;horizontalStack=0;resizeParent=1;resizeParentMax=0;resizeLast=0;collapsible=1;marginBottom=0;" parent="WIyWlLk6GJQsqaUBKTNV-1" vertex="1">
          <mxGeometry x="-55" y="1495" width="210" height="90" as="geometry" />
        </mxCell>
        <mxCell id="paI8Il_EuwSy5qUbTORu-12" value="+ getName(): String&#xa;+ toString(): String&#xa;" style="text;strokeColor=none;fillColor=none;align=left;verticalAlign=top;spacingLeft=4;spacingRight=4;overflow=hidden;rotatable=0;points=[[0,0.5],[1,0.5]];portConstraint=eastwest;" parent="paI8Il_EuwSy5qUbTORu-11" vertex="1">
          <mxGeometry y="36" width="210" height="54" as="geometry" />
        </mxCell>
        <mxCell id="paI8Il_EuwSy5qUbTORu-16" value="GameFrame" style="swimlane;fontStyle=1;align=center;verticalAlign=top;childLayout=stackLayout;horizontal=1;startSize=26;horizontalStack=0;resizeParent=1;resizeParentMax=0;resizeLast=0;collapsible=1;marginBottom=0;swimlaneLine=1;" parent="WIyWlLk6GJQsqaUBKTNV-1" vertex="1">
          <mxGeometry x="-600" y="450" width="350" height="480" as="geometry" />
        </mxCell>
        <mxCell id="paI8Il_EuwSy5qUbTORu-17" value="- addPlayers: JButton&#xa;- addAIPlayer: JButton&#xa;- start: JButton&#xa;- roll: JButton&#xa;- bp: JButton&#xa;- pt: JButton&#xa;- jail: JButton&#xa;- build: JButton&#xa;- save: JButton&#xa;- load: JButton&#xa;- jLabelList: ArrayList&lt;JLabel&gt;&#xa;- gameboardPanel: JPanel&#xa;- playerPanel: JPanel&#xa;- bodyPanel: JPanel&#xa;- messageBox: JPanel&#xa;- messages: JLabel[]&#xa;- playerNames: JLabel[]&#xa;- fullPlayerPanels: JPanel[]&#xa;- simplePlayerPanels: JPanel[]&#xa;" style="text;strokeColor=none;fillColor=none;align=left;verticalAlign=top;spacingLeft=4;spacingRight=4;overflow=hidden;rotatable=0;points=[[0,0.5],[1,0.5]];portConstraint=eastwest;" parent="paI8Il_EuwSy5qUbTORu-16" vertex="1">
          <mxGeometry y="26" width="350" height="284" as="geometry" />
        </mxCell>
        <mxCell id="paI8Il_EuwSy5qUbTORu-18" value="" style="line;strokeWidth=1;fillColor=none;align=left;verticalAlign=middle;spacingTop=-1;spacingLeft=3;spacingRight=3;rotatable=0;labelPosition=right;points=[];portConstraint=eastwest;" parent="paI8Il_EuwSy5qUbTORu-16" vertex="1">
          <mxGeometry y="310" width="350" height="8" as="geometry" />
        </mxCell>
        <mxCell id="paI8Il_EuwSy5qUbTORu-19" value="+ GameFrame()&lt;br&gt;+ displayMessage(message: String): void&lt;br&gt;- getSouth(): JPanel&lt;br&gt;- getWest(): JPanel&lt;br&gt;- getNorth(): JPanel&lt;br&gt;- getEast(): JPanel&lt;br&gt;&lt;div&gt;- getCenter(): JPanel&lt;/div&gt;+ handleBuildingStatusUpdate(gameModel: GameModel): void&lt;br&gt;+ handleGameStatusUpdate(gameModel: GameModel): void&lt;br&gt;+&amp;nbsp;&lt;u&gt;main(args: String[]): void&lt;/u&gt;" style="text;strokeColor=none;fillColor=none;align=left;verticalAlign=top;spacingLeft=4;spacingRight=4;overflow=hidden;rotatable=0;points=[[0,0.5],[1,0.5]];portConstraint=eastwest;fontStyle=0;html=1;" parent="paI8Il_EuwSy5qUbTORu-16" vertex="1">
          <mxGeometry y="318" width="350" height="162" as="geometry" />
        </mxCell>
        <mxCell id="y0c8cUuytXagtE5NIueB-3" style="edgeStyle=orthogonalEdgeStyle;rounded=0;orthogonalLoop=1;jettySize=auto;html=1;endArrow=diamondThin;endFill=0;startSize=16;endSize=16;strokeWidth=1;startArrow=diamondThin;startFill=0;targetPerimeterSpacing=0;sourcePerimeterSpacing=0;entryX=1.01;entryY=-0.013;entryDx=0;entryDy=0;entryPerimeter=0;exitX=-0.007;exitY=0.44;exitDx=0;exitDy=0;exitPerimeter=0;" parent="WIyWlLk6GJQsqaUBKTNV-1" target="89V0pPBTU7u06rMjEI4J-50" edge="1" source="89V0pPBTU7u06rMjEI4J-11">
          <mxGeometry relative="1" as="geometry">
            <mxPoint x="340" y="1440" as="sourcePoint" />
            <mxPoint x="250" y="1678" as="targetPoint" />
            <Array as="points">
              <mxPoint x="340" y="1295" />
              <mxPoint x="340" y="1679" />
            </Array>
          </mxGeometry>
        </mxCell>
        <mxCell id="y0c8cUuytXagtE5NIueB-4" value="1" style="text;html=1;align=center;verticalAlign=middle;resizable=0;points=[];autosize=1;strokeColor=none;fillColor=none;" parent="WIyWlLk6GJQsqaUBKTNV-1" vertex="1">
          <mxGeometry x="55" y="585" width="20" height="20" as="geometry" />
        </mxCell>
        <mxCell id="y0c8cUuytXagtE5NIueB-6" value="0..*" style="text;html=1;align=center;verticalAlign=middle;resizable=0;points=[];autosize=1;strokeColor=none;fillColor=none;" parent="WIyWlLk6GJQsqaUBKTNV-1" vertex="1">
          <mxGeometry x="550" y="1149" width="30" height="20" as="geometry" />
        </mxCell>
        <mxCell id="y0c8cUuytXagtE5NIueB-11" value="0..*" style="text;html=1;align=center;verticalAlign=middle;resizable=0;points=[];autosize=1;strokeColor=none;fillColor=none;" parent="WIyWlLk6GJQsqaUBKTNV-1" vertex="1">
          <mxGeometry x="50" y="1475" width="30" height="20" as="geometry" />
        </mxCell>
        <mxCell id="y0c8cUuytXagtE5NIueB-13" value="&lt;br&gt;&lt;b&gt;UML Class Diagram for Monopoly&lt;/b&gt;&lt;br&gt;&lt;br&gt;Created by Robert Simionescu&lt;br&gt;&lt;br&gt;Modified by the whole group&amp;nbsp;&amp;nbsp;&lt;br&gt;&lt;br&gt;&lt;b&gt;Group #38&lt;/b&gt;: Robert Simionescu, Yash Kapoor, Oliver Lu, Himanshu Singh" style="rounded=1;whiteSpace=wrap;html=1;labelBackgroundColor=none;" parent="WIyWlLk6GJQsqaUBKTNV-1" vertex="1">
          <mxGeometry x="290" y="385" width="260" height="150" as="geometry" />
        </mxCell>
        <mxCell id="y0c8cUuytXagtE5NIueB-14" value="0..*" style="text;html=1;align=center;verticalAlign=middle;resizable=0;points=[];autosize=1;strokeColor=none;fillColor=none;" parent="WIyWlLk6GJQsqaUBKTNV-1" vertex="1">
          <mxGeometry x="230" y="1686" width="30" height="20" as="geometry" />
        </mxCell>
        <mxCell id="8WZaVkMKhoH__vkDGNuC-29" style="edgeStyle=orthogonalEdgeStyle;rounded=0;orthogonalLoop=1;jettySize=auto;html=1;endArrow=diamond;endFill=1;endSize=10;" parent="WIyWlLk6GJQsqaUBKTNV-1" source="89V0pPBTU7u06rMjEI4J-0" edge="1">
          <mxGeometry relative="1" as="geometry">
            <mxPoint y="1260" as="sourcePoint" />
            <mxPoint x="48" y="1213" as="targetPoint" />
            <Array as="points">
              <mxPoint x="48" y="1290" />
              <mxPoint x="48" y="1290" />
            </Array>
          </mxGeometry>
        </mxCell>
        <mxCell id="y0c8cUuytXagtE5NIueB-23" value="GameModel" style="swimlane;fontStyle=1;align=center;verticalAlign=top;childLayout=stackLayout;horizontal=1;startSize=26;horizontalStack=0;resizeParent=1;resizeParentMax=0;resizeLast=0;collapsible=1;marginBottom=0;" parent="WIyWlLk6GJQsqaUBKTNV-1" vertex="1">
          <mxGeometry x="-130" y="610" width="360" height="600" as="geometry" />
        </mxCell>
        <mxCell id="y0c8cUuytXagtE5NIueB-24" value="+ MAX_PLAYERS: int&#xa;+ MIN_PLAYERS: int&#xa;+ STARTING_MONEY: int&#xa;- views: List&lt;GameView&gt;&#xa;- gameState: GameState&#xa;- buildingState: BuildingState&#xa;- players: ArrayList&lt;Player&gt;&#xa;- gameboard: Gameboard&#xa;- currentPlayer: int&#xa;- totalNumberHouses: int&#xa;-- totalNumberHotels: int&#xa;" style="text;strokeColor=none;fillColor=none;align=left;verticalAlign=top;spacingLeft=4;spacingRight=4;overflow=hidden;rotatable=0;points=[[0,0.5],[1,0.5]];portConstraint=eastwest;" parent="y0c8cUuytXagtE5NIueB-23" vertex="1">
          <mxGeometry y="26" width="360" height="164" as="geometry" />
        </mxCell>
        <mxCell id="y0c8cUuytXagtE5NIueB-25" value="" style="line;strokeWidth=1;fillColor=none;align=left;verticalAlign=middle;spacingTop=-1;spacingLeft=3;spacingRight=3;rotatable=0;labelPosition=right;points=[];portConstraint=eastwest;" parent="y0c8cUuytXagtE5NIueB-23" vertex="1">
          <mxGeometry y="190" width="360" height="8" as="geometry" />
        </mxCell>
        <mxCell id="y0c8cUuytXagtE5NIueB-26" value="&lt;div&gt;+ GameModel()&lt;/div&gt;&lt;div&gt;+ addGameView(ciew: GameView): void&lt;/div&gt;&lt;div&gt;+ getGameViews(): List&amp;lt;GameView&amp;gt;&lt;/div&gt;&lt;div&gt;+ getCurrentPlayer(): Player&lt;/div&gt;&lt;div&gt;+ removeGameView(view: GameView): void&lt;/div&gt;&lt;div&gt;+ getGameState(): GameState&lt;/div&gt;&lt;div&gt;+ setGameState(gm: GameState)&lt;br&gt;&lt;/div&gt;&lt;div&gt;+ getBuildingState(): BuildingState&lt;/div&gt;&lt;div&gt;+ setBuildingState(bs: BuildingState): void&lt;br&gt;&lt;/div&gt;&lt;div&gt;+ createGameboard(): Gameboard&lt;/div&gt;&lt;div&gt;+ getGameBoard(): Gameboard&lt;/div&gt;&lt;div&gt;+ addPlayer(player: Player): void&lt;br&gt;&lt;/div&gt;&lt;div&gt;+ startGame(): void&lt;/div&gt;&lt;div&gt;+ roll(): int[]&lt;/div&gt;&lt;div&gt;+ passTurn(playerBankrupt: boolean): void&lt;/div&gt;&lt;div&gt;- bankruptcy(debtor: Player, creditor: Player): boolean&lt;/div&gt;&lt;div&gt;+ onePlayerRemaining(): void&lt;/div&gt;&lt;div&gt;+ removePlayer(player: Player): void&lt;/div&gt;&lt;div&gt;+ getPlayers(): ArrayList&amp;lt;Player&amp;gt;&lt;/div&gt;&lt;div&gt;+ buyProperty(buyer: Player): void&lt;/div&gt;&lt;div&gt;+ playerLandOnSquare(player: Player, square: Square): boolean&lt;br&gt;&lt;/div&gt;&lt;div&gt;+ getTotalNumberHouses(): int&lt;/div&gt;&lt;div&gt;+ setTotalNumberHouses(houses: int): void&lt;/div&gt;&lt;div&gt;+ getTotalNumberHotels(): int&lt;/div&gt;&lt;div&gt;+ setTotalNumberHotels(hotels: int): void&lt;/div&gt;&lt;div&gt;- assignHouses(buyer: Player, s: Street): void&lt;/div&gt;&lt;div&gt;+ buildOnProperty(buyer: Player, name: String): void&lt;br&gt;&lt;/div&gt;" style="text;strokeColor=none;fillColor=none;align=left;verticalAlign=top;spacingLeft=4;spacingRight=4;overflow=hidden;rotatable=0;points=[[0,0.5],[1,0.5]];portConstraint=eastwest;html=1;" parent="y0c8cUuytXagtE5NIueB-23" vertex="1">
          <mxGeometry y="198" width="360" height="402" as="geometry" />
        </mxCell>
        <mxCell id="8WZaVkMKhoH__vkDGNuC-47" style="edgeStyle=orthogonalEdgeStyle;rounded=0;orthogonalLoop=1;jettySize=auto;html=1;startArrow=none;startFill=0;endArrow=diamondThin;endFill=0;endSize=16;sourcePerimeterSpacing=0;targetPerimeterSpacing=0;" parent="WIyWlLk6GJQsqaUBKTNV-1" source="8WZaVkMKhoH__vkDGNuC-8" target="y0c8cUuytXagtE5NIueB-23" edge="1">
          <mxGeometry relative="1" as="geometry" />
        </mxCell>
        <mxCell id="8WZaVkMKhoH__vkDGNuC-48" style="edgeStyle=orthogonalEdgeStyle;rounded=0;orthogonalLoop=1;jettySize=auto;html=1;startArrow=none;startFill=0;endArrow=diamondThin;endFill=0;endSize=16;sourcePerimeterSpacing=0;targetPerimeterSpacing=0;" parent="WIyWlLk6GJQsqaUBKTNV-1" target="paI8Il_EuwSy5qUbTORu-16" edge="1">
          <mxGeometry relative="1" as="geometry">
            <Array as="points">
              <mxPoint x="-107" y="360" />
              <mxPoint x="-200" y="360" />
              <mxPoint x="-200" y="690" />
            </Array>
            <mxPoint x="-107" y="360" as="sourcePoint" />
          </mxGeometry>
        </mxCell>
        <mxCell id="8WZaVkMKhoH__vkDGNuC-8" value="GameController" style="swimlane;fontStyle=1;align=center;verticalAlign=top;childLayout=stackLayout;horizontal=1;startSize=26;horizontalStack=0;resizeParent=1;resizeParentMax=0;resizeLast=0;collapsible=1;marginBottom=0;" parent="WIyWlLk6GJQsqaUBKTNV-1" vertex="1">
          <mxGeometry x="-105" y="220" width="310" height="278" as="geometry" />
        </mxCell>
        <mxCell id="8WZaVkMKhoH__vkDGNuC-9" value="- model: GameModel&#xa;- views: List&lt;GameView&gt;" style="text;strokeColor=none;fillColor=none;align=left;verticalAlign=top;spacingLeft=4;spacingRight=4;overflow=hidden;rotatable=0;points=[[0,0.5],[1,0.5]];portConstraint=eastwest;" parent="8WZaVkMKhoH__vkDGNuC-8" vertex="1">
          <mxGeometry y="26" width="310" height="34" as="geometry" />
        </mxCell>
        <mxCell id="8WZaVkMKhoH__vkDGNuC-10" value="" style="line;strokeWidth=1;fillColor=none;align=left;verticalAlign=middle;spacingTop=-1;spacingLeft=3;spacingRight=3;rotatable=0;labelPosition=right;points=[];portConstraint=eastwest;" parent="8WZaVkMKhoH__vkDGNuC-8" vertex="1">
          <mxGeometry y="60" width="310" height="8" as="geometry" />
        </mxCell>
        <mxCell id="8WZaVkMKhoH__vkDGNuC-11" value="+ GameController(model: GameModel)&#xa;- displayMessage(message: String): void&#xa;- start(): void&#xa;- buyProperty(): void&#xa;- buildOnProperty(): void&#xa;- pass(): void&#xa;- roll(): void&#xa;- addPlayer(): void&#xa;- addAIPlayer(): void&#xa;- outOfJail(): void&#xa;- AIBuild(): void&#xa;+ AITurn(): void&#xa;+ mouseClicked(e: MouseEvent): void&#xa;+ actionPerformed(e: ActionEvent): void&#xa;" style="text;strokeColor=none;fillColor=none;align=left;verticalAlign=top;spacingLeft=4;spacingRight=4;overflow=hidden;rotatable=0;points=[[0,0.5],[1,0.5]];portConstraint=eastwest;" parent="8WZaVkMKhoH__vkDGNuC-8" vertex="1">
          <mxGeometry y="68" width="310" height="210" as="geometry" />
        </mxCell>
        <mxCell id="kfgi2sBqW_4C3qd6xdu4-17" style="edgeStyle=orthogonalEdgeStyle;rounded=0;orthogonalLoop=1;jettySize=auto;html=1;endArrow=diamondThin;endFill=1;endSize=16;" parent="WIyWlLk6GJQsqaUBKTNV-1" source="8WZaVkMKhoH__vkDGNuC-12" target="y0c8cUuytXagtE5NIueB-23" edge="1">
          <mxGeometry relative="1" as="geometry">
            <Array as="points">
              <mxPoint x="310" y="750" />
              <mxPoint x="310" y="750" />
            </Array>
          </mxGeometry>
        </mxCell>
        <mxCell id="8WZaVkMKhoH__vkDGNuC-12" value="&lt;&lt;enumeration&gt;&gt;&#xa;GameState" style="swimlane;fontStyle=0;childLayout=stackLayout;horizontal=1;startSize=40;fillColor=none;horizontalStack=0;resizeParent=1;resizeParentMax=0;resizeLast=0;collapsible=1;marginBottom=0;" parent="WIyWlLk6GJQsqaUBKTNV-1" vertex="1">
          <mxGeometry x="380" y="600" width="180" height="160" as="geometry" />
        </mxCell>
        <mxCell id="8WZaVkMKhoH__vkDGNuC-13" value="ADDING_PLAYERS&#xa;PLAYER_ROLLING&#xa;PLAYER_ROLLED_DOUBLES&#xa;PLAYER_ROLLED_NORMAL&#xa;PLAYER_PASSED_GO&#xa;DOUBLED_ROLLED_THRICE&#xa;DOUBLED_ROLLED_IN_JAIL&#xa;GAME_OVER&#xa;" style="text;strokeColor=none;fillColor=none;align=left;verticalAlign=top;spacingLeft=4;spacingRight=4;overflow=hidden;rotatable=0;points=[[0,0.5],[1,0.5]];portConstraint=eastwest;" parent="8WZaVkMKhoH__vkDGNuC-12" vertex="1">
          <mxGeometry y="40" width="180" height="120" as="geometry" />
        </mxCell>
        <mxCell id="8WZaVkMKhoH__vkDGNuC-25" style="edgeStyle=orthogonalEdgeStyle;rounded=0;orthogonalLoop=1;jettySize=auto;html=1;endArrow=block;endFill=0;dashed=1;endSize=10;" parent="WIyWlLk6GJQsqaUBKTNV-1" source="8WZaVkMKhoH__vkDGNuC-16" target="paI8Il_EuwSy5qUbTORu-19" edge="1">
          <mxGeometry relative="1" as="geometry">
            <Array as="points">
              <mxPoint x="-430" y="1025" />
              <mxPoint x="-430" y="1025" />
            </Array>
          </mxGeometry>
        </mxCell>
        <mxCell id="8WZaVkMKhoH__vkDGNuC-26" style="edgeStyle=orthogonalEdgeStyle;rounded=0;orthogonalLoop=1;jettySize=auto;html=1;endArrow=diamondThin;endFill=0;endSize=16;entryX=-0.003;entryY=0.568;entryDx=0;entryDy=0;entryPerimeter=0;" parent="WIyWlLk6GJQsqaUBKTNV-1" source="8WZaVkMKhoH__vkDGNuC-16" target="y0c8cUuytXagtE5NIueB-26" edge="1">
          <mxGeometry relative="1" as="geometry">
            <Array as="points">
              <mxPoint x="-200" y="1091" />
            </Array>
          </mxGeometry>
        </mxCell>
        <mxCell id="8WZaVkMKhoH__vkDGNuC-16" value="GameView&#xa;&lt;&lt;interface&gt;&gt;" style="swimlane;fontStyle=1;childLayout=stackLayout;horizontal=1;startSize=40;fillColor=none;horizontalStack=0;resizeParent=1;resizeParentMax=0;resizeLast=0;collapsible=1;marginBottom=0;" parent="WIyWlLk6GJQsqaUBKTNV-1" vertex="1">
          <mxGeometry x="-610" y="1055" width="350" height="80" as="geometry" />
        </mxCell>
        <mxCell id="8WZaVkMKhoH__vkDGNuC-17" value="+ handleGameStatusUpdate(gameModel: GameModel): void&#xa;+ handleBuildingStatusUpdate(gameModel: GameModel): void" style="text;strokeColor=none;fillColor=none;align=left;verticalAlign=top;spacingLeft=4;spacingRight=4;overflow=hidden;rotatable=0;points=[[0,0.5],[1,0.5]];portConstraint=eastwest;" parent="8WZaVkMKhoH__vkDGNuC-16" vertex="1">
          <mxGeometry y="40" width="350" height="40" as="geometry" />
        </mxCell>
        <mxCell id="8WZaVkMKhoH__vkDGNuC-42" value="0..*" style="text;html=1;align=center;verticalAlign=middle;resizable=0;points=[];autosize=1;strokeColor=none;fillColor=none;" parent="WIyWlLk6GJQsqaUBKTNV-1" vertex="1">
          <mxGeometry x="-260" y="1075" width="30" height="20" as="geometry" />
        </mxCell>
        <mxCell id="optM9lz-F5jcca7UGsnc-0" value="1" style="text;html=1;align=center;verticalAlign=middle;resizable=0;points=[];autosize=1;strokeColor=none;fillColor=none;" parent="WIyWlLk6GJQsqaUBKTNV-1" vertex="1">
          <mxGeometry x="320" y="990" width="20" height="20" as="geometry" />
        </mxCell>
        <mxCell id="optM9lz-F5jcca7UGsnc-1" value="1" style="text;html=1;align=center;verticalAlign=middle;resizable=0;points=[];autosize=1;strokeColor=none;fillColor=none;" parent="WIyWlLk6GJQsqaUBKTNV-1" vertex="1">
          <mxGeometry x="240" y="990" width="20" height="20" as="geometry" />
        </mxCell>
        <mxCell id="optM9lz-F5jcca7UGsnc-2" value="1" style="text;html=1;align=center;verticalAlign=middle;resizable=0;points=[];autosize=1;strokeColor=none;fillColor=none;" parent="WIyWlLk6GJQsqaUBKTNV-1" vertex="1">
          <mxGeometry x="240" y="1149" width="20" height="20" as="geometry" />
        </mxCell>
        <mxCell id="optM9lz-F5jcca7UGsnc-3" value="1" style="text;html=1;align=center;verticalAlign=middle;resizable=0;points=[];autosize=1;strokeColor=none;fillColor=none;" parent="WIyWlLk6GJQsqaUBKTNV-1" vertex="1">
          <mxGeometry x="-160" y="1010" width="20" height="20" as="geometry" />
        </mxCell>
        <mxCell id="optM9lz-F5jcca7UGsnc-4" value="1" style="text;html=1;align=center;verticalAlign=middle;resizable=0;points=[];autosize=1;strokeColor=none;fillColor=none;" parent="WIyWlLk6GJQsqaUBKTNV-1" vertex="1">
          <mxGeometry x="55" y="1210" width="20" height="20" as="geometry" />
        </mxCell>
        <mxCell id="optM9lz-F5jcca7UGsnc-5" value="1" style="text;html=1;align=center;verticalAlign=middle;resizable=0;points=[];autosize=1;strokeColor=none;fillColor=none;" parent="WIyWlLk6GJQsqaUBKTNV-1" vertex="1">
          <mxGeometry x="55" y="1290" width="20" height="20" as="geometry" />
        </mxCell>
        <mxCell id="optM9lz-F5jcca7UGsnc-6" value="1" style="text;html=1;align=center;verticalAlign=middle;resizable=0;points=[];autosize=1;strokeColor=none;fillColor=none;" parent="WIyWlLk6GJQsqaUBKTNV-1" vertex="1">
          <mxGeometry x="55" y="1435" width="20" height="20" as="geometry" />
        </mxCell>
        <mxCell id="optM9lz-F5jcca7UGsnc-7" value="1" style="text;html=1;align=center;verticalAlign=middle;resizable=0;points=[];autosize=1;strokeColor=none;fillColor=none;" parent="WIyWlLk6GJQsqaUBKTNV-1" vertex="1">
          <mxGeometry x="-130" y="340" width="20" height="20" as="geometry" />
        </mxCell>
        <mxCell id="optM9lz-F5jcca7UGsnc-8" value="1" style="text;html=1;align=center;verticalAlign=middle;resizable=0;points=[];autosize=1;strokeColor=none;fillColor=none;" parent="WIyWlLk6GJQsqaUBKTNV-1" vertex="1">
          <mxGeometry x="-230" y="670" width="20" height="20" as="geometry" />
        </mxCell>
        <mxCell id="optM9lz-F5jcca7UGsnc-9" value="0..*" style="text;html=1;align=center;verticalAlign=middle;resizable=0;points=[];autosize=1;strokeColor=none;fillColor=none;" parent="WIyWlLk6GJQsqaUBKTNV-1" vertex="1">
          <mxGeometry x="535" y="1270" width="30" height="20" as="geometry" />
        </mxCell>
        <mxCell id="kfgi2sBqW_4C3qd6xdu4-8" style="edgeStyle=orthogonalEdgeStyle;rounded=0;orthogonalLoop=1;jettySize=auto;html=1;dashed=1;endArrow=open;endFill=0;endSize=10;" parent="WIyWlLk6GJQsqaUBKTNV-1" source="kfgi2sBqW_4C3qd6xdu4-4" target="paI8Il_EuwSy5qUbTORu-16" edge="1">
          <mxGeometry relative="1" as="geometry" />
        </mxCell>
        <mxCell id="kfgi2sBqW_4C3qd6xdu4-4" value="GamePanelsInitialization" style="swimlane;fontStyle=1;childLayout=stackLayout;horizontal=1;startSize=26;fillColor=none;horizontalStack=0;resizeParent=1;resizeParentMax=0;resizeLast=0;collapsible=1;marginBottom=0;" parent="WIyWlLk6GJQsqaUBKTNV-1" vertex="1">
          <mxGeometry x="-510" y="260" width="170" height="100" as="geometry" />
        </mxCell>
        <mxCell id="kfgi2sBqW_4C3qd6xdu4-5" value="+&amp;nbsp;&lt;u&gt;initializeSouthLabels(): void&lt;/u&gt;&lt;br&gt;+ &lt;u&gt;initializeWestLabels(): void&lt;/u&gt;&lt;br&gt;+ &lt;u&gt;initializeNorthLabels(): void&lt;/u&gt;&lt;br&gt;+ &lt;u&gt;initializeEastLabels(): void&lt;/u&gt;" style="text;strokeColor=none;fillColor=none;align=left;verticalAlign=top;spacingLeft=4;spacingRight=4;overflow=hidden;rotatable=0;points=[[0,0.5],[1,0.5]];portConstraint=eastwest;fontStyle=0;html=1;" parent="kfgi2sBqW_4C3qd6xdu4-4" vertex="1">
          <mxGeometry y="26" width="170" height="74" as="geometry" />
        </mxCell>
        <mxCell id="kfgi2sBqW_4C3qd6xdu4-10" value="PlayerAI" style="swimlane;fontStyle=1;align=center;verticalAlign=top;childLayout=stackLayout;horizontal=1;startSize=26;horizontalStack=0;resizeParent=1;resizeParentMax=0;resizeLast=0;collapsible=1;marginBottom=0;html=1;" parent="WIyWlLk6GJQsqaUBKTNV-1" vertex="1">
          <mxGeometry x="380" y="1550" width="320" height="120" as="geometry" />
        </mxCell>
        <mxCell id="kfgi2sBqW_4C3qd6xdu4-11" value="&lt;div&gt;- model: GameModel&lt;/div&gt;&lt;div&gt;- state: PlayerState&lt;br&gt;&lt;/div&gt;" style="text;strokeColor=none;fillColor=none;align=left;verticalAlign=top;spacingLeft=4;spacingRight=4;overflow=hidden;rotatable=0;points=[[0,0.5],[1,0.5]];portConstraint=eastwest;html=1;" parent="kfgi2sBqW_4C3qd6xdu4-10" vertex="1">
          <mxGeometry y="26" width="320" height="44" as="geometry" />
        </mxCell>
        <mxCell id="kfgi2sBqW_4C3qd6xdu4-12" value="" style="line;strokeWidth=1;fillColor=none;align=left;verticalAlign=middle;spacingTop=-1;spacingLeft=3;spacingRight=3;rotatable=0;labelPosition=right;points=[];portConstraint=eastwest;html=1;" parent="kfgi2sBqW_4C3qd6xdu4-10" vertex="1">
          <mxGeometry y="70" width="320" height="8" as="geometry" />
        </mxCell>
        <mxCell id="kfgi2sBqW_4C3qd6xdu4-13" value="&lt;div&gt;+ PlayerAI(name: String, money: int, model: GameModel)&lt;/div&gt;+ playTurn(): String" style="text;strokeColor=none;fillColor=none;align=left;verticalAlign=top;spacingLeft=4;spacingRight=4;overflow=hidden;rotatable=0;points=[[0,0.5],[1,0.5]];portConstraint=eastwest;html=1;" parent="kfgi2sBqW_4C3qd6xdu4-10" vertex="1">
          <mxGeometry y="78" width="320" height="42" as="geometry" />
        </mxCell>
        <mxCell id="kfgi2sBqW_4C3qd6xdu4-18" style="edgeStyle=orthogonalEdgeStyle;rounded=0;orthogonalLoop=1;jettySize=auto;html=1;endArrow=diamondThin;endFill=1;endSize=16;" parent="WIyWlLk6GJQsqaUBKTNV-1" source="kfgi2sBqW_4C3qd6xdu4-15" edge="1">
          <mxGeometry relative="1" as="geometry">
            <Array as="points">
              <mxPoint x="260" y="845" />
              <mxPoint x="260" y="845" />
            </Array>
            <mxPoint x="230" y="845" as="targetPoint" />
          </mxGeometry>
        </mxCell>
        <mxCell id="kfgi2sBqW_4C3qd6xdu4-15" value="&lt;&lt;enumeration&gt;&gt;&#xa;BuildingState" style="swimlane;fontStyle=0;childLayout=stackLayout;horizontal=1;startSize=40;fillColor=none;horizontalStack=0;resizeParent=1;resizeParentMax=0;resizeLast=0;collapsible=1;marginBottom=0;" parent="WIyWlLk6GJQsqaUBKTNV-1" vertex="1">
          <mxGeometry x="380" y="790" width="180" height="110" as="geometry" />
        </mxCell>
        <mxCell id="kfgi2sBqW_4C3qd6xdu4-16" value="PLAYER_NOT_BUILDING&#xa;PLAYER_BUILDING&#xa;ALL_HOUSES_BUILT&#xa;ALL_HOTELS_BUILT&#xa;" style="text;strokeColor=none;fillColor=none;align=left;verticalAlign=top;spacingLeft=4;spacingRight=4;overflow=hidden;rotatable=0;points=[[0,0.5],[1,0.5]];portConstraint=eastwest;" parent="kfgi2sBqW_4C3qd6xdu4-15" vertex="1">
          <mxGeometry y="40" width="180" height="70" as="geometry" />
        </mxCell>
        <mxCell id="kfgi2sBqW_4C3qd6xdu4-20" style="edgeStyle=orthogonalEdgeStyle;rounded=0;orthogonalLoop=1;jettySize=auto;html=1;startArrow=none;startFill=0;endArrow=open;endFill=0;startSize=16;endSize=10;sourcePerimeterSpacing=0;targetPerimeterSpacing=0;strokeWidth=1;" parent="WIyWlLk6GJQsqaUBKTNV-1" source="y0c8cUuytXagtE5NIueB-26" target="paI8Il_EuwSy5qUbTORu-11" edge="1">
          <mxGeometry relative="1" as="geometry">
            <Array as="points">
              <mxPoint x="-160" y="1170" />
              <mxPoint x="-160" y="1540" />
            </Array>
          </mxGeometry>
        </mxCell>
        <mxCell id="uym2h9vb29Y6iSeUvI3t-0" value="1" style="text;html=1;align=center;verticalAlign=middle;resizable=0;points=[];autosize=1;strokeColor=none;fillColor=none;" vertex="1" parent="WIyWlLk6GJQsqaUBKTNV-1">
          <mxGeometry x="240" y="730" width="20" height="20" as="geometry" />
        </mxCell>
        <mxCell id="uym2h9vb29Y6iSeUvI3t-1" value="1" style="text;html=1;align=center;verticalAlign=middle;resizable=0;points=[];autosize=1;strokeColor=none;fillColor=none;" vertex="1" parent="WIyWlLk6GJQsqaUBKTNV-1">
          <mxGeometry x="360" y="730" width="20" height="20" as="geometry" />
        </mxCell>
        <mxCell id="uym2h9vb29Y6iSeUvI3t-2" value="1" style="text;html=1;align=center;verticalAlign=middle;resizable=0;points=[];autosize=1;strokeColor=none;fillColor=none;" vertex="1" parent="WIyWlLk6GJQsqaUBKTNV-1">
          <mxGeometry x="240" y="850" width="20" height="20" as="geometry" />
        </mxCell>
        <mxCell id="uym2h9vb29Y6iSeUvI3t-3" value="1" style="text;html=1;align=center;verticalAlign=middle;resizable=0;points=[];autosize=1;strokeColor=none;fillColor=none;" vertex="1" parent="WIyWlLk6GJQsqaUBKTNV-1">
          <mxGeometry x="360" y="850" width="20" height="20" as="geometry" />
        </mxCell>
        <mxCell id="uym2h9vb29Y6iSeUvI3t-5" value="Railroad" style="swimlane;fontStyle=1;align=center;verticalAlign=top;childLayout=stackLayout;horizontal=1;startSize=26;horizontalStack=0;resizeParent=1;resizeParentMax=0;resizeLast=0;collapsible=1;marginBottom=0;" vertex="1" parent="WIyWlLk6GJQsqaUBKTNV-1">
          <mxGeometry x="-650" y="1435" width="340" height="122" as="geometry" />
        </mxCell>
        <mxCell id="uym2h9vb29Y6iSeUvI3t-7" value="" style="line;strokeWidth=1;fillColor=none;align=left;verticalAlign=middle;spacingTop=-1;spacingLeft=3;spacingRight=3;rotatable=0;labelPosition=right;points=[];portConstraint=eastwest;" vertex="1" parent="uym2h9vb29Y6iSeUvI3t-5">
          <mxGeometry y="26" width="340" height="24" as="geometry" />
        </mxCell>
        <mxCell id="uym2h9vb29Y6iSeUvI3t-8" value="+ Railroad(name: String, colour: String, cost: int)&#xa;+ calculateRent(player: Player, gameboard: Gameboard): int&#xa;+ toString(): String" style="text;strokeColor=none;fillColor=none;align=left;verticalAlign=top;spacingLeft=4;spacingRight=4;overflow=hidden;rotatable=0;points=[[0,0.5],[1,0.5]];portConstraint=eastwest;" vertex="1" parent="uym2h9vb29Y6iSeUvI3t-5">
          <mxGeometry y="50" width="340" height="72" as="geometry" />
        </mxCell>
        <mxCell id="uym2h9vb29Y6iSeUvI3t-9" value="Utility" style="swimlane;fontStyle=1;align=center;verticalAlign=top;childLayout=stackLayout;horizontal=1;startSize=26;horizontalStack=0;resizeParent=1;resizeParentMax=0;resizeLast=0;collapsible=1;marginBottom=0;" vertex="1" parent="WIyWlLk6GJQsqaUBKTNV-1">
          <mxGeometry x="-650" y="1635" width="340" height="122" as="geometry" />
        </mxCell>
        <mxCell id="uym2h9vb29Y6iSeUvI3t-11" value="" style="line;strokeWidth=1;fillColor=none;align=left;verticalAlign=middle;spacingTop=-1;spacingLeft=3;spacingRight=3;rotatable=0;labelPosition=right;points=[];portConstraint=eastwest;" vertex="1" parent="uym2h9vb29Y6iSeUvI3t-9">
          <mxGeometry y="26" width="340" height="24" as="geometry" />
        </mxCell>
        <mxCell id="uym2h9vb29Y6iSeUvI3t-12" value="+ Utility(name: String, colour: String, cost: int)&#xa;+ calculateRent(player: Player, gameboard: Gameboard): int&#xa;+ toString(): String" style="text;strokeColor=none;fillColor=none;align=left;verticalAlign=top;spacingLeft=4;spacingRight=4;overflow=hidden;rotatable=0;points=[[0,0.5],[1,0.5]];portConstraint=eastwest;" vertex="1" parent="uym2h9vb29Y6iSeUvI3t-9">
          <mxGeometry y="50" width="340" height="72" as="geometry" />
        </mxCell>
        <mxCell id="uym2h9vb29Y6iSeUvI3t-13" value="" style="endArrow=block;endSize=16;endFill=0;html=1;rounded=0;" edge="1" parent="WIyWlLk6GJQsqaUBKTNV-1">
          <mxGeometry width="160" relative="1" as="geometry">
            <mxPoint x="-310" y="1510" as="sourcePoint" />
            <mxPoint x="-110" y="1690" as="targetPoint" />
            <Array as="points">
              <mxPoint x="-200" y="1510" />
              <mxPoint x="-200" y="1690" />
            </Array>
          </mxGeometry>
        </mxCell>
        <mxCell id="uym2h9vb29Y6iSeUvI3t-14" value="" style="endArrow=block;endSize=16;endFill=0;html=1;rounded=0;" edge="1" parent="WIyWlLk6GJQsqaUBKTNV-1">
          <mxGeometry width="160" relative="1" as="geometry">
            <mxPoint x="-310" y="1690" as="sourcePoint" />
            <mxPoint x="-110" y="1690" as="targetPoint" />
            <Array as="points">
              <mxPoint x="-200" y="1690" />
              <mxPoint x="-140" y="1690" />
            </Array>
          </mxGeometry>
        </mxCell>
        <mxCell id="uym2h9vb29Y6iSeUvI3t-15" value="" style="endArrow=block;endSize=16;endFill=0;html=1;rounded=0;" edge="1" parent="WIyWlLk6GJQsqaUBKTNV-1">
          <mxGeometry width="160" relative="1" as="geometry">
            <mxPoint x="-310" y="1893" as="sourcePoint" />
            <mxPoint x="-110" y="1690" as="targetPoint" />
            <Array as="points">
              <mxPoint x="-200" y="1893" />
              <mxPoint x="-200" y="1690" />
            </Array>
          </mxGeometry>
        </mxCell>
        <mxCell id="uym2h9vb29Y6iSeUvI3t-16" value="&lt;&lt;enumeration&gt;&gt;&#xa;PlayerState" style="swimlane;fontStyle=0;childLayout=stackLayout;horizontal=1;startSize=40;fillColor=none;horizontalStack=0;resizeParent=1;resizeParentMax=0;resizeLast=0;collapsible=1;marginBottom=0;" vertex="1" parent="WIyWlLk6GJQsqaUBKTNV-1">
          <mxGeometry x="450" y="1740" width="180" height="110" as="geometry" />
        </mxCell>
        <mxCell id="uym2h9vb29Y6iSeUvI3t-17" value="ROLLING&#xa;ROLLED&#xa;IN_JAIL&#xa;TURN_OVER&#xa;" style="text;strokeColor=none;fillColor=none;align=left;verticalAlign=top;spacingLeft=4;spacingRight=4;overflow=hidden;rotatable=0;points=[[0,0.5],[1,0.5]];portConstraint=eastwest;" vertex="1" parent="uym2h9vb29Y6iSeUvI3t-16">
          <mxGeometry y="40" width="180" height="70" as="geometry" />
        </mxCell>
        <mxCell id="uym2h9vb29Y6iSeUvI3t-18" style="edgeStyle=orthogonalEdgeStyle;rounded=0;orthogonalLoop=1;jettySize=auto;html=1;endArrow=diamondThin;endFill=1;endSize=16;entryX=0.487;entryY=1.067;entryDx=0;entryDy=0;entryPerimeter=0;exitX=0.5;exitY=0;exitDx=0;exitDy=0;" edge="1" parent="WIyWlLk6GJQsqaUBKTNV-1" source="uym2h9vb29Y6iSeUvI3t-16" target="kfgi2sBqW_4C3qd6xdu4-13">
          <mxGeometry relative="1" as="geometry">
            <Array as="points">
              <mxPoint x="536" y="1740" />
            </Array>
            <mxPoint x="536" y="1720" as="sourcePoint" />
            <mxPoint x="530" y="1690" as="targetPoint" />
          </mxGeometry>
        </mxCell>
        <mxCell id="uym2h9vb29Y6iSeUvI3t-19" value="1" style="text;html=1;align=center;verticalAlign=middle;resizable=0;points=[];autosize=1;strokeColor=none;fillColor=none;" vertex="1" parent="WIyWlLk6GJQsqaUBKTNV-1">
          <mxGeometry x="535" y="1720" width="20" height="20" as="geometry" />
        </mxCell>
        <mxCell id="uym2h9vb29Y6iSeUvI3t-20" value="0..*" style="text;html=1;align=center;verticalAlign=middle;resizable=0;points=[];autosize=1;strokeColor=none;fillColor=none;" vertex="1" parent="WIyWlLk6GJQsqaUBKTNV-1">
          <mxGeometry x="540" y="1670" width="30" height="20" as="geometry" />
        </mxCell>
        <mxCell id="uym2h9vb29Y6iSeUvI3t-21" value="1" style="text;html=1;align=center;verticalAlign=middle;resizable=0;points=[];autosize=1;strokeColor=none;fillColor=none;" vertex="1" parent="WIyWlLk6GJQsqaUBKTNV-1">
          <mxGeometry x="50" y="500" width="20" height="20" as="geometry" />
        </mxCell>
      </root>
    </mxGraphModel>
  </diagram>
</mxfile>
